<?xml version="1.0" encoding="iso-8859-1"?>
<!-- Generator: Adobe Illustrator 19.0.0, SVG Export Plug-In . SVG Version: 6.00 Build 0)  -->
<svg version="1.1" id="Capa_1" xmlns="http://www.w3.org/2000/svg" xmlns:xlink="http://www.w3.org/1999/xlink" x="0px" y="0px"
	 viewBox="0 0 512 512" style="enable-background:new 0 0 512 512;" xml:space="preserve">
<g>
	<g>
		<path d="M504.5,460.928h-24.564V171.314h0.516c4.143,0,7.5-3.357,7.5-7.5s-3.357-7.5-7.5-7.5H335.646v-46.976
			c4.909-4.316,8.016-10.635,8.016-17.67c0-12.976-10.557-23.532-23.532-23.532h-26.172c1.034-2.647,1.608-5.523,1.608-8.532
			c0-12.976-10.557-23.532-23.532-23.532H95.678c-12.976,0-23.532,10.557-23.532,23.532c0,3.009,0.574,5.885,1.608,8.532H47.581
			c-12.976,0-23.532,10.557-23.532,23.532c0,7.035,3.107,13.354,8.016,17.67v351.589H7.5c-4.143,0-7.5,3.357-7.5,7.5
			s3.357,7.5,7.5,7.5h497c4.143,0,7.5-3.357,7.5-7.5S508.643,460.928,504.5,460.928z M335.646,267.508h129.29v17.064h-129.29
			V267.508z M335.646,299.573h129.29v17.064h-129.29V299.573z M95.678,51.073h176.354c4.705,0,8.532,3.827,8.532,8.532
			c0,4.705-3.827,8.532-8.532,8.532h-16.029c-4.143,0-7.5,3.357-7.5,7.5s3.357,7.5,7.5,7.5h16.546v17.064H95.161V83.138h128.775
			c4.143,0,7.5-3.357,7.5-7.5c0-4.143-3.357-7.5-7.5-7.5H95.678c-4.705,0-8.532-3.827-8.532-8.532
			C87.146,54.901,90.973,51.073,95.678,51.073z M39.049,91.67c0-4.705,3.827-8.532,8.532-8.532h32.58v17.064h-32.58
			C42.876,100.201,39.049,96.375,39.049,91.67z M120.242,460.928H79.129v-33.097h41.113V460.928z M176.354,460.928h-41.112v-33.097
			h41.112V460.928z M232.467,460.928h-41.113v-33.097h41.113V460.928z M288.581,460.928h-41.113v-33.097h41.113V460.928z
			 M320.645,460.928h-17.064v-40.597c0-4.143-3.357-7.5-7.5-7.5H71.629c-4.143,0-7.5,3.357-7.5,7.5v40.597H47.064v-65.161h273.581
			V460.928z M120.242,203.379v33.097H79.129v-33.097H120.242z M79.129,188.379v-33.097h41.113v33.097H79.129z M120.242,251.475
			v33.097H79.129v-33.097H120.242z M120.242,299.572v33.097H79.129v-33.097H120.242z M120.242,347.669v33.098H79.129v-33.098
			H120.242z M176.356,203.379v33.097h-41.114v-33.097H176.356z M135.242,188.379v-33.097h41.114v33.097H135.242z M176.356,251.477
			v33.097h-41.114v-33.097H176.356z M176.356,299.572v33.097h-41.114v-33.097H176.356z M176.356,347.669v33.098h-41.114v-33.098
			H176.356z M232.469,203.379v33.097h-41.112v-33.097H232.469z M191.357,188.379v-33.097h41.112v33.097H191.357z M232.468,251.477
			v33.097h-41.112v-33.097H232.468z M232.468,299.572v33.097h-41.112v-33.097H232.468z M232.468,347.669v33.098h-41.112v-33.098
			H232.468z M288.581,203.379v33.097h-41.112v-33.097H288.581z M247.469,188.379v-33.097h41.112v33.097H247.469z M288.581,251.477
			v33.097h-41.112v-33.097H288.581z M288.581,299.572v33.097h-41.112v-33.097H288.581z M288.581,347.669v33.098h-41.112v-33.098
			H288.581z M320.646,380.766h-17.064V147.782c0-4.143-3.357-7.5-7.5-7.5H71.629c-4.143,0-7.5,3.357-7.5,7.5v232.984H47.064V115.201
			h0.517h272.548h0.517V380.766z M320.129,100.201h-32.58V83.138h32.58c4.705,0,8.532,3.827,8.532,8.532
			S324.834,100.201,320.129,100.201z M335.645,395.767h80.676c4.143,0,7.5-3.357,7.5-7.5s-3.357-7.5-7.5-7.5h-80.676v-17.065h129.29
			v17.065h-16.55c-4.143,0-7.5,3.357-7.5,7.5s3.357,7.5,7.5,7.5h16.55v17.064h-129.29V395.767z M464.936,460.928h-129.29v-33.097
			h129.29V460.928z M464.936,348.701h-129.29v-17.064h129.29V348.701z M464.936,252.507h-129.29v-17.064h80.676
			c4.143,0,7.5-3.357,7.5-7.5s-3.357-7.5-7.5-7.5h-80.676v-17.064h129.29v17.064h-16.55c-4.143,0-7.5,3.357-7.5,7.5
			s3.357,7.5,7.5,7.5h16.55V252.507z M464.936,188.378h-129.29v-17.064h129.29V188.378z"/>
	</g>
</g>
<g>
</g>
<g>
</g>
<g>
</g>
<g>
</g>
<g>
</g>
<g>
</g>
<g>
</g>
<g>
</g>
<g>
</g>
<g>
</g>
<g>
</g>
<g>
</g>
<g>
</g>
<g>
</g>
<g>
</g>
</svg>
